<svg width="20" height="20" viewBox="0 0 20 20" fill="none" xmlns="http://www.w3.org/2000/svg">
<path d="M18.3307 11.6668V10.0002C18.3307 9.30097 18.3307 8.67955 18.32 8.12516H1.67481C1.66406 8.67955 1.66406 9.30097 1.66406 10.0002V11.6668C1.66406 14.8095 1.66406 16.3809 2.64037 17.3572C3.61668 18.3335 5.18803 18.3335 8.33073 18.3335H11.6641C14.8068 18.3335 16.3781 18.3335 17.3544 17.3572C18.3307 16.3809 18.3307 14.8095 18.3307 11.6668Z" fill="#AC3DEB"/>
<path d="M6.45573 2.0835C6.45573 1.73832 6.17591 1.4585 5.83073 1.4585C5.48555 1.4585 5.20573 1.73832 5.20573 2.0835V3.39954C4.00629 3.49559 3.21887 3.73131 2.64037 4.30981C2.06187 4.88831 1.82616 5.67572 1.73011 6.87516H18.2647C18.1686 5.67572 17.9329 4.88831 17.3544 4.30981C16.7759 3.73131 15.9885 3.49559 14.7891 3.39954V2.0835C14.7891 1.73832 14.5092 1.4585 14.1641 1.4585C13.8189 1.4585 13.5391 1.73832 13.5391 2.0835V3.34425C12.9847 3.3335 12.3633 3.3335 11.6641 3.3335H8.33073C7.63153 3.3335 7.01012 3.3335 6.45573 3.34425V2.0835Z" fill="#AC3DEB"/>
</svg>
