<svg width="28" height="29" viewBox="0 0 28 29" fill="none" xmlns="http://www.w3.org/2000/svg">
<path fill-rule="evenodd" clip-rule="evenodd" d="M8.16927 2.94141C4.94761 2.94141 2.33594 5.55308 2.33594 8.77475V20.4414C2.33594 23.6631 4.94762 26.2747 8.16928 26.2747H19.8359C23.0576 26.2747 25.6693 23.6631 25.6693 20.4414V8.77474C25.6693 5.55308 23.0576 2.94141 19.8359 2.94141H8.16927ZM21.0026 8.77482C21.6469 8.77482 22.1692 8.25249 22.1692 7.60815C22.1692 6.96382 21.6469 6.44149 21.0026 6.44149C20.3582 6.44149 19.8359 6.96382 19.8359 7.60815C19.8359 8.25249 20.3582 8.77482 21.0026 8.77482ZM19.8359 14.6082C19.8359 17.8298 17.2242 20.4415 14.0026 20.4415C10.7809 20.4415 8.16923 17.8298 8.16923 14.6082C8.16923 11.3865 10.7809 8.77482 14.0026 8.77482C17.2242 8.77482 19.8359 11.3865 19.8359 14.6082ZM14.0026 18.1082C15.9356 18.1082 17.5026 16.5412 17.5026 14.6082C17.5026 12.6752 15.9356 11.1082 14.0026 11.1082C12.0696 11.1082 10.5026 12.6752 10.5026 14.6082C10.5026 16.5412 12.0696 18.1082 14.0026 18.1082Z" fill="url(#paint0_linear_60_2995)"/>
<defs>
<linearGradient id="paint0_linear_60_2995" x1="14.0026" y1="2.94141" x2="14.0026" y2="26.2747" gradientUnits="userSpaceOnUse">
<stop stop-color="white"/>
<stop offset="1" stop-color="#AC3DEB"/>
</linearGradient>
</defs>
</svg>
