<svg width="24" height="24" viewBox="0 0 24 24" fill="none" xmlns="http://www.w3.org/2000/svg">
<path fill-rule="evenodd" clip-rule="evenodd" d="M7.49715 3.68736C7.87667 3.5214 8.04979 3.07921 7.88383 2.6997C7.71787 2.32018 7.27568 2.14706 6.89617 2.31302C4.63941 3.29988 2.72454 4.92041 1.37553 6.94934C1.14619 7.29427 1.2399 7.75981 1.58482 7.98915C1.92975 8.21849 2.39529 8.12478 2.62463 7.77986C3.81588 5.98821 5.50681 4.55772 7.49715 3.68736ZM17.104 2.31302C16.7245 2.14706 16.2823 2.32018 16.1163 2.6997C15.9504 3.07921 16.1235 3.5214 16.503 3.68736C18.4934 4.55772 20.1843 5.98821 21.3755 7.77985C21.6049 8.12478 22.0704 8.21849 22.4153 7.98915C22.7603 7.75981 22.854 7.29427 22.6246 6.94934C21.2756 4.92041 19.3607 3.29988 17.104 2.31302ZM18.9916 18.6681C20.2475 17.1207 21.0001 15.1484 21.0001 13.0002C21.0001 8.02968 16.9707 4.00024 12.0001 4.00024C7.02956 4.00024 3.00012 8.02968 3.00012 13.0002C3.00012 15.1484 3.75269 17.1207 5.00856 18.668L3.34594 21.6333C3.14337 21.9946 3.27204 22.4518 3.63334 22.6543C3.99464 22.8569 4.45175 22.7282 4.65432 22.3669L6.09693 19.794C7.67715 21.1682 9.74147 22.0002 12.0001 22.0002C14.2587 22.0002 16.323 21.1682 17.9033 19.794L19.346 22.3669C19.5485 22.7282 20.0056 22.8569 20.3669 22.6543C20.7282 22.4517 20.8569 21.9946 20.6543 21.6333L18.9916 18.6681ZM12.0001 7.25024C12.4143 7.25024 12.7501 7.58603 12.7501 8.00024V12.5989L15.4161 14.3762C15.7608 14.606 15.8539 15.0716 15.6242 15.4163C15.3944 15.7609 14.9287 15.854 14.5841 15.6243L11.5841 13.6243C11.3754 13.4852 11.2501 13.251 11.2501 13.0002V8.00024C11.2501 7.58603 11.5859 7.25024 12.0001 7.25024Z" fill="#AC3DEB"/>
</svg>
