<svg width="28" height="29" viewBox="0 0 28 29" fill="none" xmlns="http://www.w3.org/2000/svg">
<path fill-rule="evenodd" clip-rule="evenodd" d="M7.00264 5.27474C7.00264 6.5634 5.95798 7.60807 4.66931 7.60807C3.38065 7.60807 2.33598 6.5634 2.33598 5.27474C2.33598 3.98608 3.38065 2.94141 4.66931 2.94141C5.95798 2.94141 7.00264 3.98608 7.00264 5.27474ZM2.33594 10.5248H7.0026V26.2748H2.33594V10.5248ZM10.5026 10.5248H15.1693V11.5065C15.8991 11.2485 16.6845 11.1082 17.5026 11.1082C21.3686 11.1082 24.5026 14.2422 24.5026 18.1082V26.2748H19.8359V18.1082C19.8359 16.8195 18.7913 15.7748 17.5026 15.7748C16.2139 15.7748 15.1693 16.8195 15.1693 18.1082V26.2748H10.5026V18.1082V10.5248Z" fill="url(#paint0_linear_60_3003)"/>
<defs>
<linearGradient id="paint0_linear_60_3003" x1="13.4193" y1="2.94141" x2="13.4193" y2="26.2747" gradientUnits="userSpaceOnUse">
<stop stop-color="white"/>
<stop offset="1" stop-color="#AC3DEB"/>
</linearGradient>
</defs>
</svg>
